<?xml version="1.0" encoding="utf-8"?>
<!-- Generator: Adobe Illustrator 25.0.1, SVG Export Plug-In . SVG Version: 6.00 Build 0)  -->
<svg version="1.1" id="Lager_1" xmlns="http://www.w3.org/2000/svg" xmlns:xlink="http://www.w3.org/1999/xlink" x="0px" y="0px"
	 viewBox="0 0 800 1863" style="enable-background:new 0 0 800 1863;" xml:space="preserve">
<style type="text/css">
	.st0{fill:#404040;}
	.st1{fill:#FFFFFF;stroke:#404040;stroke-width:4;stroke-linecap:round;stroke-linejoin:round;stroke-miterlimit:10;}
	.st2{fill:none;stroke:#CCCCCC;stroke-linecap:round;stroke-linejoin:round;stroke-miterlimit:10;}
	.st3{fill:none;stroke:#404040;stroke-width:4;stroke-miterlimit:10;}
	.st4{fill:#4ED1A1;stroke:#404040;stroke-width:4;stroke-miterlimit:10;}
	.st5{fill:#B3E3FF;stroke:#404040;stroke-width:4;stroke-miterlimit:10;}
	.st6{fill:#FFFFFF;stroke:#404040;stroke-width:4;stroke-miterlimit:10;}
	.st7{fill:#B3E3FF;stroke:#404040;stroke-width:4;stroke-linejoin:round;stroke-miterlimit:10;}
	.st8{fill:#4ED1A1;stroke:#404040;stroke-width:4;stroke-linecap:round;stroke-linejoin:round;stroke-miterlimit:10;}
	.st9{fill:none;stroke:#404040;stroke-width:4;stroke-linecap:round;stroke-linejoin:round;stroke-miterlimit:10;}
	.st10{fill:#B3E3FF;stroke:#404040;stroke-width:4.0001;stroke-linejoin:round;stroke-miterlimit:10.0002;}
	.st11{fill:#999999;}
</style>
<path class="st0" d="M342.3,1116.7c2,0,3.2,1.2,3.2,2.9c0,1.1-0.7,2-1.6,2.3c1.2,0.3,1.9,1.4,1.9,2.6c0,1.7-1.3,2.9-3.3,2.9h-3.7
	v-10.6h3.5V1116.7z M342.2,1121.4c1.2,0,1.9-0.7,1.9-1.7s-0.7-1.7-1.9-1.7h-1.8v3.4L342.2,1121.4L342.2,1121.4z M342.4,1126.1
	c1.2,0,2-0.7,2-1.7s-0.6-1.7-1.9-1.7h-2.1v3.4L342.4,1126.1L342.4,1126.1z M352.4,1121.6h-0.6c-1.2,0-2,0.6-2,2.2v3.6h-1.4v-7.2h1.4
	v1.3c0.5-1.1,1.4-1.4,2.2-1.4h0.5v1.5H352.4z M356.4,1123.3l1.9-0.3c0.4-0.1,0.6-0.3,0.6-0.5c0-0.7-0.5-1.3-1.6-1.3
	c-1,0-1.5,0.6-1.6,1.5l-1.4-0.3c0.2-1.4,1.4-2.3,3-2.3c2.2,0,3,1.2,3,2.6v3.6c0,0.6,0.1,1,0.1,1.2H359c0-0.2-0.1-0.5-0.1-1
	c-0.3,0.5-1,1.2-2.3,1.2c-1.5,0-2.4-1-2.4-2.2C354.2,1124.2,355.2,1123.4,356.4,1123.3L356.4,1123.3z M358.9,1124.3v-0.3l-2.2,0.3
	c-0.6,0.1-1.1,0.4-1.1,1.1c0,0.5,0.4,1,1.2,1C358,1126.4,358.9,1125.9,358.9,1124.3z M364.7,1127.4h-1.4v-7.2h1.4v1
	c0.5-0.9,1.4-1.2,2.2-1.2c1.7,0,2.6,1.2,2.6,2.8v4.6H368v-4.3c0-1-0.4-1.8-1.7-1.8c-1.1,0-1.7,0.9-1.7,2v4.1H364.7z M377.5,1126.3
	c-0.3,0.7-1.1,1.3-2.2,1.3c-2.1,0-3.4-1.7-3.4-3.8c0-2,1.4-3.8,3.4-3.8c1.3,0,2,0.6,2.2,1.2v-4.7h1.4v9.5c0,0.7,0.1,1.2,0.1,1.3
	h-1.4C377.6,1127.1,377.5,1126.8,377.5,1126.3z M375.4,1126.3c1.3,0,2.1-1.1,2.1-2.6s-0.8-2.5-2.1-2.5s-2.1,1.1-2.1,2.5
	S374.1,1126.3,375.4,1126.3z M393.9,1127.4l-5.7-8.7v8.7h-1.5v-10.6h2l5.3,8.2v-8.2h1.5v10.6H393.9L393.9,1127.4z M405,1125.3
	c-0.4,1.3-1.6,2.3-3.2,2.3c-1.9,0-3.6-1.4-3.6-3.9c0-2.3,1.6-3.8,3.4-3.8c2.2,0,3.5,1.5,3.5,3.8v0.4h-5.4c0,1.3,1,2.2,2.2,2.2
	s1.8-0.6,2-1.5L405,1125.3z M403.6,1123c0-1-0.7-1.8-2-1.8c-1.2,0-1.9,0.9-2,1.8H403.6z M413,1120.2l1.9,5.4l1.6-5.4h1.5l-2.3,7.2
	h-1.5l-1.9-5.5l-1.9,5.5h-1.5l-2.4-7.2h1.5l1.6,5.4l1.9-5.4H413L413,1120.2z M424.1,1122.1c0-3.6,2.6-5.5,5.3-5.5
	c2.4,0,4.1,1.3,4.7,3.4l-1.4,0.5c-0.4-1.6-1.6-2.5-3.3-2.5c-1.9,0-3.8,1.4-3.8,4.2c0,2.8,1.8,4.2,3.8,4.2c1.8,0,3-1.1,3.4-2.5
	l1.3,0.5c-0.6,2-2.2,3.4-4.7,3.4C426.7,1127.6,424.1,1125.6,424.1,1122.1z M443.2,1123.8c0,2.2-1.5,3.8-3.7,3.8s-3.7-1.6-3.7-3.8
	c0-2.2,1.5-3.8,3.7-3.8S443.2,1121.6,443.2,1123.8z M441.7,1123.8c0-1.7-1.1-2.6-2.2-2.6s-2.2,0.9-2.2,2.6s1,2.6,2.2,2.6
	S441.7,1125.4,441.7,1123.8z M445.7,1127.4v-7.2h1.3v1c0.4-0.8,1.4-1.2,2.2-1.2c0.9,0,1.8,0.4,2.2,1.4c0.6-1,1.5-1.4,2.4-1.4
	c1.3,0,2.5,0.9,2.5,2.7v4.7h-1.4v-4.5c0-0.9-0.5-1.6-1.5-1.6s-1.7,0.8-1.7,1.8v4.4h-1.4v-4.5c0-0.9-0.4-1.6-1.5-1.6
	c-1,0-1.7,0.8-1.7,1.8v4.3h-1.4V1127.4z M459.3,1127.4v-7.2h1.3v1c0.4-0.8,1.4-1.2,2.2-1.2c0.9,0,1.8,0.4,2.2,1.4
	c0.6-1,1.5-1.4,2.4-1.4c1.3,0,2.5,0.9,2.5,2.7v4.7h-1.4v-4.5c0-0.9-0.5-1.6-1.5-1.6s-1.7,0.8-1.7,1.8v4.4h-1.4v-4.5
	c0-0.9-0.4-1.6-1.5-1.6c-1,0-1.7,0.8-1.7,1.8v4.3h-1.4V1127.4z M473.6,1116.4c0.6,0,1,0.4,1,1s-0.4,1-1,1s-1-0.5-1-1
	S473,1116.4,473.6,1116.4z M472.9,1127.4v-7.2h1.4v7.2H472.9z M479.3,1120.2h1.6v1.3h-1.6v3.8c0,0.7,0.3,1,1,1c0.2,0,0.4,0,0.6-0.1
	v1.2c-0.1,0-0.5,0.1-1,0.1c-1.2,0-2-0.8-2-2.1v-4h-1.4v-1.3h0.4c0.8,0,1.1-0.5,1.1-1.1v-1.2h1.3V1120.2L479.3,1120.2z M484.2,1125.1
	c0.1,0.8,0.7,1.3,1.7,1.3c0.8,0,1.2-0.4,1.2-1c0-0.5-0.3-0.8-0.9-0.9l-1.2-0.3c-1.1-0.2-1.8-1-1.8-2c0-1.2,1.2-2.3,2.6-2.3
	c2,0,2.6,1.3,2.7,1.9l-1.2,0.5c-0.1-0.4-0.4-1.2-1.5-1.2c-0.7,0-1.2,0.5-1.2,1c0,0.4,0.3,0.8,0.8,0.9l1.2,0.3c1.3,0.3,2,1.1,2,2.1
	s-0.9,2.2-2.6,2.2c-2,0-2.8-1.3-2.9-2.1L484.2,1125.1L484.2,1125.1z"/>
<path class="st1" d="M310.1,1121.9h13 M312,1117.3l9.2,9.2 M321.2,1117.3l-9.2,9.2 M316.6,1115.4v13"/>
<path class="st0" d="M369.5,1853.8v-8.3l-3.6,8.3h-1.3l-3.6-8.3v8.3h-1.5v-10.6h2l3.7,8.7l3.8-8.7h2v10.6H369.5z M380.5,1851.7
	c-0.4,1.3-1.6,2.3-3.2,2.3c-1.9,0-3.6-1.4-3.6-3.9c0-2.3,1.6-3.8,3.4-3.8c2.2,0,3.5,1.5,3.5,3.8v0.5h-5.4c0,1.3,1,2.2,2.2,2.2
	s1.8-0.6,2-1.5L380.5,1851.7z M379.1,1849.4c0-1-0.7-1.8-2-1.8c-1.2,0-1.9,0.9-2,1.8H379.1z M387.1,1848h-0.6c-1.2,0-2,0.6-2,2.2
	v3.6h-1.4v-7.2h1.4v1.3c0.5-1.1,1.4-1.4,2.2-1.4h0.5v1.5H387.1z M390.1,1853.9c0.1,1,0.9,1.8,2,1.8c1.5,0,2.2-0.8,2.2-2.3v-1
	c-0.3,0.7-1.1,1.2-2.2,1.2c-1.9,0-3.3-1.5-3.3-3.5c0-1.9,1.3-3.5,3.3-3.5c1.1,0,1.9,0.4,2.2,1.1v-1h1.4v6.7c0,1.8-0.9,3.6-3.6,3.6
	c-1.8,0-3.1-1.1-3.3-2.7L390.1,1853.9L390.1,1853.9z M394.4,1849.9c0-1.4-0.8-2.3-2.1-2.3c-1.2,0-2.1,0.9-2.1,2.3s0.8,2.3,2.1,2.3
	C393.5,1852.3,394.4,1851.3,394.4,1849.9z M405,1851.7c-0.4,1.3-1.6,2.3-3.2,2.3c-1.9,0-3.6-1.4-3.6-3.9c0-2.3,1.6-3.8,3.4-3.8
	c2.2,0,3.5,1.5,3.5,3.8v0.5h-5.4c0,1.3,1,2.2,2.2,2.2s1.8-0.6,2-1.5L405,1851.7z M403.6,1849.4c0-1-0.7-1.8-2-1.8
	c-1.2,0-1.9,0.9-2,1.8H403.6z M411.6,1848.5c0-3.6,2.6-5.5,5.3-5.5c2.4,0,4.1,1.3,4.7,3.4l-1.4,0.5c-0.4-1.6-1.6-2.5-3.3-2.5
	c-1.9,0-3.8,1.4-3.8,4.2s1.8,4.2,3.8,4.2c1.8,0,3-1.1,3.4-2.5l1.3,0.5c-0.6,2-2.2,3.4-4.7,3.4C414.1,1854,411.6,1852,411.6,1848.5z
	 M430.6,1850.2c0,2.2-1.5,3.8-3.7,3.8s-3.7-1.6-3.7-3.8c0-2.2,1.5-3.8,3.7-3.8S430.6,1848,430.6,1850.2z M429.1,1850.2
	c0-1.7-1.1-2.6-2.2-2.6s-2.2,0.9-2.2,2.6s1.1,2.6,2.2,2.6S429.1,1851.9,429.1,1850.2z M433.1,1853.8v-7.2h1.3v1
	c0.5-0.8,1.4-1.2,2.2-1.2c0.9,0,1.8,0.4,2.2,1.4c0.6-1,1.5-1.4,2.4-1.4c1.3,0,2.5,0.9,2.5,2.7v4.7h-1.4v-4.5c0-0.9-0.5-1.7-1.5-1.7
	s-1.7,0.8-1.7,1.8v4.4h-1.4v-4.5c0-0.9-0.4-1.7-1.5-1.7c-1,0-1.7,0.8-1.7,1.8v4.3L433.1,1853.8L433.1,1853.8z M446.7,1853.8v-7.2
	h1.3v1c0.5-0.8,1.4-1.2,2.2-1.2c0.9,0,1.8,0.4,2.2,1.4c0.6-1,1.5-1.4,2.4-1.4c1.3,0,2.5,0.9,2.5,2.7v4.7h-1.4v-4.5
	c0-0.9-0.5-1.7-1.5-1.7s-1.7,0.8-1.7,1.8v4.4h-1.4v-4.5c0-0.9-0.4-1.7-1.5-1.7c-1,0-1.7,0.8-1.7,1.8v4.3L446.7,1853.8L446.7,1853.8z
	 M461,1842.8c0.6,0,1,0.5,1,1c0,0.6-0.4,1-1,1s-1-0.4-1-1C460,1843.3,460.5,1842.8,461,1842.8z M460.3,1853.8v-7.2h1.4v7.2H460.3z
	 M466.8,1846.6h1.6v1.3h-1.6v3.8c0,0.7,0.3,1,1,1c0.2,0,0.4,0,0.6-0.1v1.2c-0.1,0-0.5,0.1-1,0.1c-1.2,0-2-0.8-2-2.1v-4H464v-1.3h0.4
	c0.8,0,1.1-0.5,1.1-1.1v-1.2h1.3V1846.6L466.8,1846.6z"/>
<path class="st1" d="M330.3,1848.3h13 M332.2,1843.7l9.1,9.2 M341.3,1843.7l-9.1,9.2 M336.8,1841.8v13"/>
<path class="st2" d="M129.3,611.4h541.4 M129.3,1228.4h541.4"/>
<path class="st0" d="M358.4,100.6V90h1.5v10.6H358.4z M364.6,100.6h-1.4v-7.2h1.4v1c0.5-0.9,1.4-1.2,2.2-1.2c1.7,0,2.6,1.2,2.6,2.8
	v4.6H368v-4.3c0-1-0.4-1.8-1.7-1.8c-1.1,0-1.7,0.9-1.7,2L364.6,100.6L364.6,100.6z M373,89.6c0.6,0,1,0.5,1,1c0,0.6-0.4,1-1,1
	s-1-0.4-1-1C372,90.1,372.5,89.6,373,89.6z M372.3,100.6v-7.2h1.4v7.2H372.3z M378.8,93.4h1.6v1.3h-1.6v3.8c0,0.7,0.3,1,1,1
	c0.2,0,0.4,0,0.6-0.1v1.2c-0.1,0-0.5,0.1-1,0.1c-1.2,0-2-0.8-2-2.1v-4H376v-1.3h0.4c0.8,0,1.1-0.5,1.1-1.1V91h1.3V93.4z M383.6,89.6
	c0.6,0,1,0.5,1,1c0,0.6-0.4,1-1,1s-1-0.4-1-1C382.6,90.1,383.1,89.6,383.6,89.6z M383,100.6v-7.2h1.4v7.2H383z M389.2,96.5l1.9-0.3
	c0.4-0.1,0.6-0.3,0.6-0.5c0-0.7-0.5-1.3-1.6-1.3c-1,0-1.5,0.6-1.6,1.5l-1.4-0.3c0.2-1.4,1.4-2.3,3-2.3c2.2,0,3,1.2,3,2.6v3.6
	c0,0.6,0.1,1,0.1,1.2h-1.4c0-0.2-0.1-0.4-0.1-1c-0.3,0.5-1,1.2-2.3,1.2c-1.5,0-2.4-1-2.4-2.2C387,97.4,388,96.7,389.2,96.5
	L389.2,96.5z M391.7,97.5v-0.3l-2.2,0.3c-0.6,0.1-1.1,0.4-1.1,1.1c0,0.5,0.4,1.1,1.2,1.1C390.8,99.7,391.7,99.1,391.7,97.5z
	 M396.1,100.6V89.7h1.4v10.9H396.1z M410.8,92.9c-0.1-0.8-0.8-1.8-2.2-1.8c-1.2,0-2.1,0.8-2.1,1.8c0,0.8,0.5,1.3,1.4,1.5l1.6,0.3
	c1.8,0.4,2.8,1.5,2.8,3c0,1.6-1.4,3.1-3.7,3.1c-2.6,0-3.8-1.6-4-3.2l1.4-0.4c0.1,1.2,0.9,2.3,2.5,2.3c1.5,0,2.2-0.8,2.2-1.7
	c0-0.8-0.5-1.4-1.6-1.6l-1.5-0.3c-1.5-0.3-2.6-1.3-2.6-2.9c0-1.7,1.5-3.2,3.5-3.2c2.4,0,3.4,1.5,3.6,2.6L410.8,92.9L410.8,92.9z
	 M416.5,93.4h1.6v1.3h-1.6v3.8c0,0.7,0.3,1,1,1c0.2,0,0.4,0,0.6-0.1v1.2c-0.1,0-0.5,0.1-1,0.1c-1.2,0-2-0.8-2-2.1v-4h-1.4v-1.3h0.4
	c0.8,0,1.1-0.5,1.1-1.1V91h1.3V93.4z M422.5,96.5l1.9-0.3c0.4-0.1,0.6-0.3,0.6-0.5c0-0.7-0.5-1.3-1.6-1.3c-1,0-1.5,0.6-1.6,1.5
	l-1.4-0.3c0.2-1.4,1.4-2.3,3-2.3c2.2,0,3,1.2,3,2.6v3.6c0,0.6,0.1,1,0.1,1.2h-1.4c0-0.2-0.1-0.4-0.1-1c-0.3,0.5-1,1.2-2.3,1.2
	c-1.5,0-2.4-1-2.4-2.2C420.3,97.4,421.2,96.7,422.5,96.5L422.5,96.5z M425,97.5v-0.3l-2.2,0.3c-0.6,0.1-1,0.4-1,1.1
	c0,0.5,0.4,1.1,1.2,1.1C424,99.7,425,99.1,425,97.5z M431.2,93.4h1.6v1.3h-1.6v3.8c0,0.7,0.3,1,1,1c0.2,0,0.4,0,0.6-0.1v1.2
	c-0.1,0-0.5,0.1-1,0.1c-1.2,0-2-0.8-2-2.1v-4h-1.4v-1.3h0.4c0.8,0,1.1-0.5,1.1-1.1V91h1.3V93.4z M441.6,98.6
	c-0.4,1.3-1.6,2.3-3.2,2.3c-1.9,0-3.6-1.4-3.6-3.9c0-2.3,1.6-3.8,3.4-3.8c2.2,0,3.5,1.5,3.5,3.8v0.5h-5.4c0,1.3,1,2.2,2.2,2.2
	s1.8-0.6,2-1.5L441.6,98.6z M440.2,96.3c0-1-0.7-1.8-2-1.8c-1.2,0-1.9,0.9-2,1.8H440.2z M335.5,697.3h-1.6v4.3h-1.5V691h4
	c2,0,3.3,1.4,3.3,3.2c0,1.5-1,2.7-2.6,3l2.5,4.5h-1.7L335.5,697.3L335.5,697.3z M336.2,695.9c1.2,0,2-0.7,2-1.8s-0.8-1.8-2-1.8H334
	v3.6H336.2z M348.3,699.6c-0.4,1.3-1.6,2.3-3.2,2.3c-1.9,0-3.6-1.4-3.6-3.9c0-2.3,1.6-3.8,3.4-3.8c2.2,0,3.5,1.5,3.5,3.8v0.5H343
	c0,1.3,1,2.2,2.2,2.2s1.8-0.6,2-1.5L348.3,699.6z M346.9,697.3c0-1-0.7-1.8-2-1.8c-1.2,0-1.9,0.9-2,1.8H346.9z M350.9,701.6v-10.9
	h1.4v4.7c0.3-0.6,1.2-1.2,2.4-1.2c2.2,0,3.3,1.7,3.3,3.8s-1.2,3.8-3.4,3.8c-1.1,0-1.9-0.5-2.3-1.2v1L350.9,701.6L350.9,701.6z
	 M354.4,695.4c-1.2,0-2.1,1-2.1,2.5c0,1.6,0.9,2.6,2.1,2.6c1.3,0,2.1-1,2.1-2.6C356.6,696.4,355.7,695.4,354.4,695.4z M362.3,697.5
	l1.9-0.3c0.4-0.1,0.6-0.3,0.6-0.5c0-0.7-0.5-1.3-1.6-1.3c-1,0-1.5,0.6-1.6,1.5l-1.4-0.3c0.2-1.4,1.4-2.3,3-2.3c2.2,0,3,1.2,3,2.6
	v3.6c0,0.6,0.1,1,0.1,1.2h-1.4c0-0.2-0.1-0.4-0.1-1c-0.3,0.5-1,1.2-2.3,1.2c-1.5,0-2.4-1-2.4-2.2C360.1,698.4,361,697.7,362.3,697.5
	L362.3,697.5z M364.8,698.5v-0.3l-2.2,0.3c-0.6,0.1-1,0.4-1,1.1c0,0.5,0.4,1.1,1.2,1.1C363.9,700.7,364.8,700.1,364.8,698.5
	L364.8,698.5z M369.7,699.3c0.1,0.8,0.7,1.3,1.7,1.3c0.8,0,1.2-0.4,1.2-1c0-0.5-0.3-0.8-0.9-0.9l-1.2-0.3c-1.1-0.2-1.8-1-1.8-2
	c0-1.2,1.2-2.3,2.6-2.3c2,0,2.6,1.3,2.7,1.9l-1.2,0.5c-0.1-0.4-0.4-1.2-1.5-1.2c-0.7,0-1.2,0.5-1.2,1c0,0.4,0.3,0.8,0.8,0.9l1.2,0.3
	c1.3,0.3,2,1.1,2,2.1s-0.9,2.2-2.6,2.2c-2,0-2.8-1.3-2.9-2.1L369.7,699.3L369.7,699.3z M382.9,699.6c-0.4,1.3-1.6,2.3-3.2,2.3
	c-1.9,0-3.6-1.4-3.6-3.9c0-2.3,1.6-3.8,3.4-3.8c2.2,0,3.5,1.5,3.5,3.8v0.5h-5.4c0,1.3,1,2.2,2.2,2.2s1.8-0.6,2-1.5L382.9,699.6z
	 M381.5,697.3c0-1-0.7-1.8-2-1.8c-1.2,0-1.9,0.9-2,1.8H381.5z M391.7,697.5l1.9-0.3c0.4-0.1,0.6-0.3,0.6-0.5c0-0.7-0.5-1.3-1.6-1.3
	c-1,0-1.5,0.6-1.6,1.5l-1.4-0.3c0.2-1.4,1.4-2.3,3-2.3c2.2,0,3,1.2,3,2.6v3.6c0,0.6,0.1,1,0.1,1.2h-1.4c0-0.2-0.1-0.4-0.1-1
	c-0.3,0.5-1,1.2-2.3,1.2c-1.5,0-2.4-1-2.4-2.2C389.5,698.4,390.5,697.7,391.7,697.5L391.7,697.5z M394.2,698.5v-0.3l-2.2,0.3
	c-0.6,0.1-1.1,0.4-1.1,1.1c0,0.5,0.4,1.1,1.2,1.1C393.3,700.7,394.2,700.1,394.2,698.5L394.2,698.5z M400,701.6h-1.4v-7.2h1.4v1
	c0.5-0.9,1.4-1.2,2.2-1.2c1.7,0,2.6,1.2,2.6,2.8v4.6h-1.4v-4.3c0-1-0.4-1.8-1.7-1.8c-1.1,0-1.7,0.9-1.7,2V701.6L400,701.6z
	 M412.8,700.5c-0.3,0.7-1.1,1.3-2.2,1.3c-2.1,0-3.4-1.7-3.4-3.8c0-2,1.4-3.8,3.4-3.8c1.3,0,2,0.6,2.2,1.2v-4.7h1.4v9.5
	c0,0.7,0.1,1.2,0.1,1.3h-1.4C412.9,701.3,412.8,701,412.8,700.5z M410.7,700.6c1.3,0,2.1-1.1,2.1-2.6s-0.8-2.5-2.1-2.5
	s-2.1,1-2.1,2.5S409.4,700.6,410.7,700.6z M432,701.6v-8.3l-3.6,8.3H427l-3.6-8.3v8.3H422V691h2l3.7,8.7l3.8-8.7h2v10.6H432z
	 M443,699.6c-0.4,1.3-1.6,2.3-3.2,2.3c-1.9,0-3.6-1.4-3.6-3.9c0-2.3,1.6-3.8,3.4-3.8c2.2,0,3.5,1.5,3.5,3.8v0.5h-5.4
	c0,1.3,1,2.2,2.2,2.2s1.8-0.6,2-1.5L443,699.6z M441.6,697.3c0-1-0.7-1.8-2-1.8c-1.2,0-1.9,0.9-2,1.8H441.6z M449.6,695.8H449
	c-1.2,0-2,0.6-2,2.2v3.6h-1.4v-7.2h1.4v1.3c0.5-1.1,1.4-1.4,2.2-1.4h0.5v1.5L449.6,695.8z M452.7,701.7c0.1,1,0.9,1.8,2,1.8
	c1.5,0,2.2-0.8,2.2-2.3v-1c-0.3,0.7-1.1,1.2-2.2,1.2c-1.9,0-3.3-1.5-3.3-3.5c0-1.9,1.3-3.5,3.3-3.5c1.1,0,1.9,0.4,2.2,1.1v-1h1.4
	v6.7c0,1.8-0.9,3.6-3.6,3.6c-1.8,0-3.1-1.1-3.3-2.7L452.7,701.7L452.7,701.7z M456.9,697.8c0-1.4-0.8-2.3-2.1-2.3
	c-1.2,0-2.1,0.9-2.1,2.3s0.8,2.3,2.1,2.3C456,700.1,456.9,699.2,456.9,697.8z M467.5,699.6c-0.4,1.3-1.6,2.3-3.2,2.3
	c-1.9,0-3.6-1.4-3.6-3.9c0-2.3,1.6-3.8,3.4-3.8c2.2,0,3.5,1.5,3.5,3.8v0.5h-5.4c0,1.3,1,2.2,2.2,2.2s1.8-0.6,2-1.5L467.5,699.6z
	 M466.1,697.3c0-1-0.7-1.8-2-1.8c-1.2,0-1.9,0.9-2,1.8H466.1z"/>
<path class="st3" d="M301.6,327.5c0,22.6-18.4,41-41,41 M301.6,327.5c0-22.6,18.4-41,41-41H616"/>
<circle class="st4" cx="386" cy="286.5" r="21"/>
<circle class="st4" cx="482" cy="286.5" r="21"/>
<path class="st5" d="M90.6,368.5h170"/>
<circle class="st6" cx="111.6" cy="368.5" r="21"/>
<circle class="st6" cx="207.6" cy="368.5" r="21"/>
<path class="st3" d="M575,327.5c0,22.6-18.4,41-41,41 M575,327.5c0-22.6,18.4-41,41-41h22.4"/>
<circle class="st4" cx="659.4" cy="286.5" r="21"/>
<path class="st5" d="M243.9,368.5H534"/>
<circle class="st5" cx="385" cy="368.5" r="21"/>
<circle class="st7" cx="481" cy="368.5" r="21"/>
<circle class="st7" cx="385" cy="368.5" r="21"/>
<path class="st8" d="M609.4,145.6h100v50h-100V145.6z"/>
<path class="st0" d="M632.6,176.6V166h6.5v1.4h-5v3.4h4.5v1.4H634v4.5L632.6,176.6L632.6,176.6z M647.2,174.5
	c-0.4,1.3-1.6,2.3-3.2,2.3c-1.9,0-3.6-1.4-3.6-3.9c0-2.3,1.6-3.8,3.4-3.8c2.2,0,3.5,1.5,3.5,3.8v0.5h-5.4c0,1.3,1,2.2,2.2,2.2
	s1.8-0.6,2-1.5L647.2,174.5z M645.8,172.2c0-1-0.7-1.8-2-1.8c-1.2,0-1.9,0.9-2,1.8H645.8z M651.5,172.4l1.9-0.3
	c0.4-0.1,0.6-0.3,0.6-0.5c0-0.7-0.5-1.3-1.6-1.3c-1,0-1.5,0.6-1.6,1.5l-1.4-0.3c0.2-1.4,1.4-2.3,3-2.3c2.2,0,3,1.2,3,2.6v3.6
	c0,0.6,0.1,1,0.1,1.2h-1.4c0-0.2-0.1-0.5-0.1-1c-0.3,0.5-1,1.2-2.3,1.2c-1.5,0-2.4-1-2.4-2.2C649.3,173.3,650.3,172.6,651.5,172.4z
	 M654,173.5v-0.3l-2.2,0.3c-0.6,0.1-1.1,0.4-1.1,1.1c0,0.5,0.4,1,1.2,1C653.1,175.6,654,175,654,173.5z M660.3,169.3h1.6v1.3h-1.6
	v3.8c0,0.7,0.3,1,1,1c0.2,0,0.4,0,0.6-0.1v1.2c-0.1,0-0.5,0.1-1,0.1c-1.2,0-2-0.8-2-2.1v-4h-1.4v-1.3h0.4c0.8,0,1.1-0.5,1.1-1.1
	v-1.2h1.3L660.3,169.3L660.3,169.3z M667.1,176.8c-1.7,0-2.7-1.3-2.7-2.9v-4.5h1.4v4.3c0,1,0.4,1.9,1.6,1.9c1.1,0,1.7-0.8,1.7-1.8
	v-4.3h1.4v5.9c0,0.6,0,1.1,0.1,1.3h-1.4c0-0.2-0.1-0.6-0.1-0.9C668.8,176.4,667.9,176.8,667.1,176.8z M677.7,170.8h-0.6
	c-1.2,0-2,0.6-2,2.2v3.6h-1.4v-7.2h1.4v1.3c0.5-1.1,1.4-1.4,2.2-1.4h0.5v1.5L677.7,170.8z M686.2,174.5c-0.4,1.3-1.6,2.3-3.2,2.3
	c-1.9,0-3.6-1.4-3.6-3.9c0-2.3,1.6-3.8,3.4-3.8c2.2,0,3.5,1.5,3.5,3.8v0.5h-5.4c0,1.3,1,2.2,2.2,2.2s1.8-0.6,2-1.5L686.2,174.5z
	 M684.7,172.2c0-1-0.7-1.8-2-1.8c-1.2,0-1.9,0.9-2,1.8H684.7z"/>
<path class="st9" d="M659.4,241.4v-23.5 M670.2,232.7l-10.8,10.8l-10.9-10.8"/>
<path class="st7" d="M431,459.4h100v50H431V459.4z"/>
<path class="st9" d="M481,412.9v23.5 M470.2,421.6l10.8-10.9l10.9,10.9"/>
<path class="st0" d="M322.2,1341.5v-8.3l-3.6,8.3h-1.3l-3.6-8.3v8.3h-1.5v-10.6h2l3.7,8.7l3.8-8.7h2v10.6H322.2z M333.3,1339.4
	c-0.4,1.3-1.6,2.3-3.2,2.3c-1.9,0-3.6-1.4-3.6-3.9c0-2.3,1.6-3.8,3.4-3.8c2.2,0,3.5,1.5,3.5,3.8v0.5H328c0,1.3,1,2.2,2.2,2.2
	s1.8-0.6,2-1.5L333.3,1339.4z M331.9,1337.1c0-1-0.7-1.8-2-1.8c-1.2,0-1.9,0.9-2,1.8H331.9z M339.9,1335.7h-0.6c-1.2,0-2,0.6-2,2.2
	v3.6h-1.4v-7.2h1.4v1.3c0.5-1.1,1.4-1.4,2.2-1.4h0.5v1.5H339.9z M342.9,1341.5c0.1,1,0.9,1.8,2,1.8c1.5,0,2.2-0.8,2.2-2.3v-1
	c-0.3,0.7-1.1,1.2-2.2,1.2c-1.9,0-3.3-1.5-3.3-3.5c0-1.9,1.3-3.5,3.3-3.5c1.1,0,1.9,0.4,2.2,1.1v-1h1.4v6.7c0,1.8-0.9,3.6-3.6,3.6
	c-1.8,0-3.1-1.1-3.3-2.7L342.9,1341.5L342.9,1341.5z M347.1,1337.6c0-1.4-0.8-2.3-2.1-2.3c-1.2,0-2.1,0.9-2.1,2.3s0.8,2.3,2.1,2.3
	S347.1,1339,347.1,1337.6z M357.8,1339.4c-0.4,1.3-1.6,2.3-3.2,2.3c-1.9,0-3.6-1.4-3.6-3.9c0-2.3,1.6-3.8,3.4-3.8
	c2.2,0,3.5,1.5,3.5,3.8v0.5h-5.4c0,1.3,1,2.2,2.2,2.2s1.8-0.6,2-1.5L357.8,1339.4z M356.3,1337.1c0-1-0.7-1.8-2-1.8
	c-1.2,0-1.9,0.9-2,1.8H356.3z M370.4,1334.2l1.9,5.4l1.6-5.4h1.5l-2.3,7.2h-1.5l-1.9-5.5l-1.9,5.5h-1.5l-2.4-7.2h1.5l1.6,5.4
	l1.9-5.4H370.4L370.4,1334.2z M378.2,1330.5c0.6,0,1,0.5,1,1c0,0.6-0.4,1-1,1s-1-0.5-1-1C377.2,1330.9,377.6,1330.5,378.2,1330.5z
	 M377.5,1341.5v-7.2h1.4v7.2H377.5z M383.9,1334.2h1.6v1.3h-1.6v3.8c0,0.7,0.3,1,1,1c0.2,0,0.4,0,0.6-0.1v1.2c-0.1,0-0.5,0.1-1,0.1
	c-1.2,0-2-0.8-2-2.1v-4h-1.4v-1.3h0.4c0.8,0,1.1-0.5,1.1-1.1v-1.2h1.3V1334.2L383.9,1334.2z M389.5,1341.5h-1.4v-10.9h1.4v4.5
	c0.5-0.8,1.4-1,2.2-1c1.7,0,2.6,1.2,2.6,2.9v4.6h-1.4v-4.3c0-1-0.4-1.8-1.7-1.8c-1.1,0-1.6,0.8-1.7,1.9V1341.5L389.5,1341.5z
	 M404.1,1337.8c0,2.2-1.5,3.8-3.7,3.8s-3.7-1.6-3.7-3.8c0-2.2,1.5-3.8,3.7-3.8S404.1,1335.7,404.1,1337.8z M402.6,1337.8
	c0-1.7-1.1-2.6-2.2-2.6s-2.2,0.9-2.2,2.6s1,2.6,2.2,2.6S402.6,1339.5,402.6,1337.8z M409.2,1341.7c-1.7,0-2.7-1.3-2.7-2.9v-4.5h1.4
	v4.3c0,1,0.4,1.9,1.6,1.9c1.1,0,1.7-0.8,1.7-1.8v-4.3h1.4v5.9c0,0.6,0,1.1,0.1,1.3h-1.4c0-0.2-0.1-0.6-0.1-0.9
	C410.9,1341.3,410,1341.7,409.2,1341.7z M417.7,1334.2h1.6v1.3h-1.6v3.8c0,0.7,0.3,1,1,1c0.2,0,0.4,0,0.6-0.1v1.2
	c-0.1,0-0.5,0.1-1,0.1c-1.2,0-2-0.8-2-2.1v-4h-1.4v-1.3h0.4c0.8,0,1.1-0.5,1.1-1.1v-1.2h1.3V1334.2L417.7,1334.2z M430.4,1335.7
	h-0.6c-1.2,0-2,0.6-2,2.2v3.6h-1.4v-7.2h1.4v1.3c0.5-1.1,1.4-1.4,2.2-1.4h0.5v1.5H430.4z M438.8,1339.4c-0.4,1.3-1.6,2.3-3.2,2.3
	c-1.9,0-3.6-1.4-3.6-3.9c0-2.3,1.6-3.8,3.4-3.8c2.2,0,3.5,1.5,3.5,3.8v0.5h-5.4c0,1.3,1,2.2,2.2,2.2s1.8-0.6,2-1.5L438.8,1339.4z
	 M437.4,1337.1c0-1-0.7-1.8-2-1.8c-1.2,0-1.9,0.9-2,1.8H437.4z M441.4,1341.5v-10.9h1.4v4.7c0.3-0.6,1.2-1.2,2.4-1.2
	c2.2,0,3.3,1.7,3.3,3.8c0,2.1-1.2,3.8-3.4,3.8c-1.1,0-1.9-0.5-2.3-1.2v1L441.4,1341.5L441.4,1341.5z M445,1335.3
	c-1.2,0-2.1,1-2.1,2.5c0,1.6,0.9,2.6,2.1,2.6c1.3,0,2.1-1,2.1-2.6C447.1,1336.3,446.3,1335.3,445,1335.3z M452.8,1337.3l1.9-0.3
	c0.4-0.1,0.6-0.3,0.6-0.5c0-0.7-0.5-1.3-1.6-1.3c-1,0-1.5,0.6-1.6,1.5l-1.4-0.3c0.2-1.4,1.4-2.3,3-2.3c2.2,0,3,1.2,3,2.6v3.6
	c0,0.6,0.1,1,0.1,1.2h-1.4c0-0.2-0.1-0.5-0.1-1c-0.3,0.5-1,1.2-2.3,1.2c-1.5,0-2.4-1-2.4-2.2
	C450.6,1338.2,451.6,1337.5,452.8,1337.3L452.8,1337.3z M455.3,1338.4v-0.3l-2.2,0.3c-0.6,0.1-1.1,0.4-1.1,1.1c0,0.5,0.4,1,1.2,1
	C454.4,1340.5,455.3,1339.9,455.3,1338.4z M460.3,1339.1c0.1,0.8,0.7,1.3,1.7,1.3c0.8,0,1.2-0.5,1.2-1c0-0.4-0.3-0.8-0.9-0.9
	l-1.2-0.3c-1.1-0.2-1.8-1-1.8-2c0-1.2,1.2-2.3,2.6-2.3c2,0,2.6,1.3,2.7,1.9l-1.2,0.5c-0.1-0.4-0.4-1.2-1.5-1.2c-0.7,0-1.2,0.5-1.2,1
	c0,0.4,0.3,0.8,0.8,0.9l1.2,0.3c1.3,0.3,2,1.1,2,2.1s-0.9,2.2-2.6,2.2c-2,0-2.8-1.3-2.9-2.1L460.3,1339.1L460.3,1339.1z
	 M467.9,1330.5c0.6,0,1,0.5,1,1c0,0.6-0.4,1-1,1s-1-0.5-1-1C466.9,1330.9,467.3,1330.5,467.9,1330.5z M467.2,1341.5v-7.2h1.4v7.2
	H467.2z M473.2,1341.5h-1.4v-7.2h1.4v1c0.5-0.9,1.4-1.2,2.2-1.2c1.7,0,2.6,1.2,2.6,2.9v4.6h-1.4v-4.3c0-1-0.4-1.8-1.7-1.8
	c-1.1,0-1.7,0.9-1.7,2V1341.5z M481.8,1341.5c0.1,1,0.9,1.8,2,1.8c1.5,0,2.2-0.8,2.2-2.3v-1c-0.3,0.7-1.1,1.2-2.2,1.2
	c-1.9,0-3.3-1.5-3.3-3.5c0-1.9,1.3-3.5,3.3-3.5c1.1,0,1.9,0.4,2.2,1.1v-1h1.4v6.7c0,1.8-0.9,3.6-3.6,3.6c-1.8,0-3.1-1.1-3.3-2.7
	L481.8,1341.5L481.8,1341.5z M486,1337.6c0-1.4-0.8-2.3-2.1-2.3c-1.2,0-2.1,0.9-2.1,2.3s0.8,2.3,2.1,2.3S486,1339,486,1337.6z"/>
<path class="st3" d="M250.6,1598.4c0,22.6-18.4,41-41,41 M250.6,1598.4c0-22.6,18.4-41,41-41H506"/>
<circle class="st4" cx="334.9" cy="1557.4" r="21"/>
<circle class="st4" cx="430.9" cy="1557.4" r="21"/>
<circle class="st4" cx="526.9" cy="1557.4" r="21"/>
<circle class="st4" cx="430.9" cy="1557.4" r="21"/>
<path class="st5" d="M39.6,1639.4h170"/>
<circle class="st6" cx="60.6" cy="1639.4" r="21"/>
<circle class="st6" cx="156.6" cy="1639.4" r="21"/>
<path class="st3" d="M636.4,1598.4c0,22.6,18.4,41,41,41 M636.4,1598.4c0-22.6-18.4-41-41-41h-47.5"/>
<path class="st5" d="M192.9,1639.4h496.5"/>
<circle class="st5" cx="334" cy="1639.4" r="21"/>
<circle class="st7" cx="430" cy="1639.4" r="21"/>
<circle class="st7" cx="710.4" cy="1639.4" r="21"/>
<circle class="st7" cx="334" cy="1639.4" r="21"/>
<path class="st8" d="M476.9,1416.4h100v50h-100L476.9,1416.4z"/>
<path class="st0" d="M500.1,1447.4v-10.6h6.5v1.4h-5v3.4h4.5v1.4h-4.5v4.5h-1.5V1447.4z M514.7,1445.4c-0.4,1.3-1.6,2.3-3.2,2.3
	c-1.9,0-3.6-1.4-3.6-3.9c0-2.3,1.6-3.8,3.4-3.8c2.2,0,3.5,1.5,3.5,3.8v0.5h-5.4c0,1.3,1,2.2,2.2,2.2c1.2,0,1.8-0.6,2-1.5
	L514.7,1445.4L514.7,1445.4z M513.3,1443.1c0-1-0.7-1.8-2-1.8c-1.2,0-1.9,0.9-2,1.8H513.3z M519.1,1443.3l1.9-0.3
	c0.4-0.1,0.6-0.3,0.6-0.5c0-0.7-0.5-1.3-1.6-1.3c-1,0-1.5,0.6-1.6,1.5l-1.4-0.3c0.2-1.4,1.4-2.3,3-2.3c2.2,0,3,1.2,3,2.6v3.6
	c0,0.6,0.1,1,0.1,1.2h-1.4c0-0.2-0.1-0.4-0.1-1c-0.3,0.5-1,1.2-2.3,1.2c-1.5,0-2.4-1-2.4-2.2
	C516.9,1444.2,517.8,1443.5,519.1,1443.3L519.1,1443.3z M521.6,1444.3v-0.3l-2.2,0.3c-0.6,0.1-1.1,0.4-1.1,1.1
	c0,0.5,0.4,1.1,1.2,1.1C520.7,1446.5,521.6,1445.9,521.6,1444.3z M527.8,1440.2h1.6v1.3h-1.6v3.8c0,0.7,0.3,1,1,1
	c0.2,0,0.4,0,0.6-0.1v1.2c-0.1,0-0.5,0.1-1,0.1c-1.2,0-2-0.8-2-2.1v-4H525v-1.3h0.4c0.8,0,1.1-0.5,1.1-1.1v-1.2h1.3V1440.2
	L527.8,1440.2z M534.6,1447.6c-1.7,0-2.7-1.3-2.7-2.9v-4.5h1.4v4.3c0,1,0.4,1.9,1.6,1.9c1.1,0,1.7-0.8,1.7-1.8v-4.4h1.4v5.9
	c0,0.6,0,1.1,0.1,1.3h-1.4c0-0.2-0.1-0.6-0.1-0.9C536.4,1447.3,535.5,1447.6,534.6,1447.6z M545.3,1441.6h-0.6c-1.2,0-2,0.6-2,2.2
	v3.6h-1.4v-7.2h1.4v1.3c0.5-1.1,1.4-1.4,2.2-1.4h0.5v1.5H545.3z M553.7,1445.4c-0.4,1.3-1.6,2.3-3.2,2.3c-1.9,0-3.6-1.4-3.6-3.9
	c0-2.3,1.6-3.8,3.4-3.8c2.2,0,3.5,1.5,3.5,3.8v0.5h-5.4c0,1.3,1,2.2,2.2,2.2s1.8-0.6,2-1.5L553.7,1445.4z M552.3,1443.1
	c0-1-0.7-1.8-2-1.8c-1.2,0-1.9,0.9-2,1.8H552.3z"/>
<path class="st9" d="M526.9,1512.2v-23.5 M537.8,1503.5l-10.9,10.9l-10.8-10.9"/>
<path class="st7" d="M660.4,1730.3h100v50h-100V1730.3z"/>
<path class="st9" d="M710.4,1683.7v23.5 M699.6,1692.4l10.8-10.8l10.9,10.8"/>
<path class="st1" d="M703.9,1639.4h13 M705.8,1634.8l9.2,9.2 M715,1634.8l-9.2,9.2 M710.4,1632.9v13"/>
<path class="st9" d="M543.3,913.3h124.4 M626.3,913.3l-196.7,41c0,22.6-18.4,41-41,41H103.3 M429.6,954.3c0-22.6,18.4-41,41-41h30.7
	"/>
<circle class="st7" cx="332" cy="995.3" r="21"/>
<ellipse transform="matrix(0.3162 -0.9487 0.9487 0.3162 -774.1713 916.5062)" class="st10" cx="248.7" cy="995.3" rx="21" ry="21"/>
<circle class="st1" cx="165.5" cy="995.3" r="21"/>
<circle class="st1" cx="82.3" cy="995.3" r="21"/>
<circle class="st8" cx="522.3" cy="913.3" r="21"/>
<circle class="st8" cx="688.7" cy="913.3" r="21"/>
<circle class="st8" cx="605.5" cy="913.3" r="21"/>
<path class="st9" d="M688.7,870.6v-23.5 M699.6,861.9l-10.9,10.9l-10.8-10.9"/>
<path class="st8" d="M638.7,773.9h100v50h-100V773.9z"/>
<path class="st0" d="M661.9,804.9v-10.6h6.5v1.4h-5v3.4h4.5v1.4h-4.5v4.5h-1.5V804.9z M676.6,802.8c-0.4,1.3-1.6,2.3-3.2,2.3
	c-1.9,0-3.6-1.4-3.6-3.9c0-2.3,1.6-3.8,3.4-3.8c2.2,0,3.5,1.5,3.5,3.8v0.4h-5.4c0,1.3,1,2.2,2.2,2.2s1.8-0.6,2-1.5L676.6,802.8z
	 M675.1,800.5c0-1-0.7-1.8-2-1.8c-1.2,0-1.9,0.9-2,1.8H675.1z M680.9,800.8l1.9-0.3c0.4-0.1,0.6-0.3,0.6-0.5c0-0.7-0.5-1.3-1.6-1.3
	c-1,0-1.5,0.6-1.6,1.5l-1.4-0.3c0.2-1.4,1.4-2.3,3-2.3c2.2,0,3,1.2,3,2.6v3.6c0,0.6,0.1,1,0.1,1.2h-1.4c0-0.2-0.1-0.5-0.1-1
	c-0.3,0.5-1,1.2-2.3,1.2c-1.5,0-2.4-1-2.4-2.2C678.7,801.7,679.6,800.9,680.9,800.8z M683.4,801.8v-0.3l-2.2,0.3
	c-0.6,0.1-1.1,0.4-1.1,1.1c0,0.5,0.4,1,1.2,1C682.5,803.9,683.4,803.4,683.4,801.8z M689.6,797.7h1.6v1.3h-1.6v3.8c0,0.7,0.3,1,1,1
	c0.2,0,0.4,0,0.6-0.1v1.2c-0.1,0-0.5,0.1-1,0.1c-1.2,0-2-0.8-2-2.1v-4h-1.4v-1.3h0.4c0.8,0,1.1-0.5,1.1-1.1v-1.2h1.3L689.6,797.7
	L689.6,797.7z M696.4,805.1c-1.7,0-2.7-1.3-2.7-2.9v-4.5h1.4v4.3c0,1,0.4,1.9,1.6,1.9c1.1,0,1.7-0.8,1.7-1.8v-4.4h1.4v5.9
	c0,0.6,0,1.1,0.1,1.3h-1.4c0-0.2-0.1-0.6-0.1-0.9C698.2,804.8,697.3,805.1,696.4,805.1L696.4,805.1z M707.1,799.1h-0.6
	c-1.2,0-2,0.6-2,2.2v3.6h-1.4v-7.2h1.4v1.3c0.5-1.1,1.4-1.4,2.2-1.4h0.5v1.5L707.1,799.1z M715.5,802.8c-0.4,1.3-1.6,2.3-3.2,2.3
	c-1.9,0-3.6-1.4-3.6-3.9c0-2.3,1.6-3.8,3.4-3.8c2.2,0,3.5,1.5,3.5,3.8v0.4h-5.4c0,1.3,1,2.2,2.2,2.2s1.8-0.6,2-1.5L715.5,802.8z
	 M714.1,800.5c0-1-0.7-1.8-2-1.8c-1.2,0-1.9,0.9-2,1.8H714.1z"/>
<path class="st1" d="M515.8,913.3h13 M517.7,908.7l9.2,9.2 M526.9,908.7l-9.2,9.2 M522.3,906.8v13 M682.2,913.3h13 M684.2,908.7
	l9.1,9.2 M693.3,908.7l-9.1,9.2 M688.7,906.8v13"/>
<path class="st7" d="M638.7,1004.4h100v50h-100V1004.4z"/>
<path class="st9" d="M688.7,957.9v23.5 M677.9,966.6l10.8-10.9l10.9,10.9"/>
<path class="st1" d="M599,913.3h13 M600.9,908.7l9.2,9.2 M610.1,908.7l-9.2,9.2 M605.5,906.8v13"/>
<g>
	<path d="M466.1,490.5v-10h2l2.4,7.1c0.2,0.7,0.4,1.2,0.5,1.5c0.1-0.4,0.3-0.9,0.5-1.6l2.4-7h1.8v10h-1.3v-8.4l-2.9,8.4h-1.2
		l-2.9-8.5v8.5H466.1z"/>
	<path d="M483.1,489.6c-0.5,0.4-0.9,0.7-1.3,0.8c-0.4,0.2-0.9,0.2-1.4,0.2c-0.8,0-1.4-0.2-1.8-0.6s-0.6-0.9-0.6-1.5
		c0-0.4,0.1-0.7,0.2-1c0.2-0.3,0.4-0.5,0.6-0.7c0.3-0.2,0.6-0.3,0.9-0.4c0.2-0.1,0.6-0.1,1.1-0.2c1-0.1,1.7-0.3,2.2-0.4
		c0-0.2,0-0.3,0-0.3c0-0.5-0.1-0.9-0.3-1.1c-0.3-0.3-0.8-0.4-1.4-0.4s-1,0.1-1.3,0.3c-0.3,0.2-0.5,0.6-0.6,1.1l-1.2-0.2
		c0.1-0.5,0.3-0.9,0.5-1.2c0.3-0.3,0.6-0.6,1.1-0.7c0.5-0.2,1-0.3,1.6-0.3s1.1,0.1,1.5,0.2s0.7,0.3,0.9,0.6c0.2,0.2,0.3,0.5,0.4,0.8
		c0,0.2,0.1,0.6,0.1,1.1v1.6c0,1.1,0,1.9,0.1,2.2c0.1,0.3,0.2,0.6,0.3,0.9h-1.3C483.2,490.3,483.1,490,483.1,489.6z M483,486.9
		c-0.4,0.2-1.1,0.3-2,0.5c-0.5,0.1-0.9,0.2-1.1,0.2s-0.4,0.2-0.5,0.4c-0.1,0.2-0.2,0.4-0.2,0.6c0,0.3,0.1,0.6,0.4,0.8
		c0.2,0.2,0.6,0.3,1.1,0.3s0.9-0.1,1.3-0.3c0.4-0.2,0.6-0.5,0.8-0.9c0.1-0.3,0.2-0.7,0.2-1.2L483,486.9L483,486.9z"/>
	<path d="M486.9,481.9v-1.4h1.2v1.4H486.9z M486.9,490.5v-7.3h1.2v7.3H486.9z"/>
	<path d="M490.7,490.5v-7.3h1.1v1c0.5-0.8,1.3-1.2,2.3-1.2c0.4,0,0.8,0.1,1.2,0.2c0.4,0.2,0.6,0.4,0.8,0.6s0.3,0.6,0.4,0.9
		c0,0.2,0.1,0.6,0.1,1.2v4.5h-1.2V486c0-0.5,0-0.9-0.1-1.1s-0.3-0.4-0.5-0.6c-0.2-0.1-0.5-0.2-0.9-0.2c-0.5,0-1,0.2-1.4,0.5
		s-0.6,1-0.6,1.9v4H490.7z"/>
</g>
<g>
	<path d="M676.1,1035.5v-10h2l2.4,7.1c0.2,0.7,0.4,1.2,0.5,1.5c0.1-0.4,0.3-0.9,0.5-1.6l2.4-7h1.8v10h-1.3v-8.4l-2.9,8.4h-1.2
		l-2.9-8.5v8.5H676.1z"/>
	<path d="M693.1,1034.6c-0.5,0.4-0.9,0.7-1.3,0.8c-0.4,0.2-0.9,0.2-1.4,0.2c-0.8,0-1.4-0.2-1.8-0.6c-0.4-0.4-0.6-0.9-0.6-1.5
		c0-0.4,0.1-0.7,0.2-1c0.2-0.3,0.4-0.5,0.6-0.7c0.3-0.2,0.6-0.3,0.9-0.4c0.2-0.1,0.6-0.1,1.1-0.2c1-0.1,1.7-0.3,2.2-0.4
		c0-0.2,0-0.3,0-0.3c0-0.5-0.1-0.9-0.3-1.1c-0.3-0.3-0.8-0.4-1.4-0.4c-0.6,0-1,0.1-1.3,0.3c-0.3,0.2-0.5,0.6-0.6,1.1l-1.2-0.2
		c0.1-0.5,0.3-0.9,0.5-1.2c0.3-0.3,0.6-0.6,1.1-0.7c0.5-0.2,1-0.3,1.6-0.3s1.1,0.1,1.5,0.2s0.7,0.3,0.9,0.6c0.2,0.2,0.3,0.5,0.4,0.8
		c0,0.2,0.1,0.6,0.1,1.1v1.6c0,1.1,0,1.9,0.1,2.2c0.1,0.3,0.2,0.6,0.3,0.9h-1.3C693.2,1035.3,693.1,1035,693.1,1034.6z M693,1031.9
		c-0.4,0.2-1.1,0.3-2,0.5c-0.5,0.1-0.9,0.2-1.1,0.2s-0.4,0.2-0.5,0.4c-0.1,0.2-0.2,0.4-0.2,0.6c0,0.3,0.1,0.6,0.4,0.8
		c0.2,0.2,0.6,0.3,1.1,0.3s0.9-0.1,1.3-0.3c0.4-0.2,0.6-0.5,0.8-0.9c0.1-0.3,0.2-0.7,0.2-1.2V1031.9z"/>
	<path d="M696.9,1026.9v-1.4h1.2v1.4H696.9z M696.9,1035.5v-7.3h1.2v7.3H696.9z"/>
	<path d="M700.7,1035.5v-7.3h1.1v1c0.5-0.8,1.3-1.2,2.3-1.2c0.4,0,0.8,0.1,1.2,0.2c0.4,0.2,0.6,0.4,0.8,0.6s0.3,0.6,0.4,0.9
		c0,0.2,0.1,0.6,0.1,1.2v4.5h-1.2v-4.4c0-0.5,0-0.9-0.1-1.1s-0.3-0.4-0.5-0.6c-0.2-0.1-0.5-0.2-0.9-0.2c-0.5,0-1,0.2-1.4,0.5
		s-0.6,1-0.6,1.9v4H700.7z"/>
</g>
<g>
	<path d="M696.2,1761.3v-10h2l2.4,7.1c0.2,0.7,0.4,1.2,0.5,1.5c0.1-0.4,0.3-0.9,0.5-1.6l2.4-7h1.8v10h-1.3v-8.4l-2.9,8.4h-1.2
		l-2.9-8.5v8.5H696.2z"/>
	<path d="M713.2,1760.4c-0.5,0.4-0.9,0.7-1.3,0.8c-0.4,0.2-0.9,0.2-1.4,0.2c-0.8,0-1.4-0.2-1.8-0.6c-0.4-0.4-0.6-0.9-0.6-1.5
		c0-0.4,0.1-0.7,0.2-1c0.2-0.3,0.4-0.5,0.6-0.7c0.3-0.2,0.6-0.3,0.9-0.4c0.2-0.1,0.6-0.1,1.1-0.2c1-0.1,1.7-0.3,2.2-0.4
		c0-0.2,0-0.3,0-0.3c0-0.5-0.1-0.9-0.3-1.1c-0.3-0.3-0.8-0.4-1.4-0.4c-0.6,0-1,0.1-1.3,0.3c-0.3,0.2-0.5,0.6-0.6,1.1l-1.2-0.2
		c0.1-0.5,0.3-0.9,0.5-1.2c0.3-0.3,0.6-0.6,1.1-0.7c0.5-0.2,1-0.3,1.6-0.3s1.1,0.1,1.5,0.2s0.7,0.3,0.9,0.6c0.2,0.2,0.3,0.5,0.4,0.8
		c0,0.2,0.1,0.6,0.1,1.1v1.6c0,1.1,0,1.9,0.1,2.2c0.1,0.3,0.2,0.6,0.3,0.9h-1.3C713.3,1761.1,713.2,1760.8,713.2,1760.4z
		 M713.1,1757.7c-0.4,0.2-1.1,0.3-2,0.5c-0.5,0.1-0.9,0.2-1.1,0.2s-0.4,0.2-0.5,0.4c-0.1,0.2-0.2,0.4-0.2,0.6c0,0.3,0.1,0.6,0.4,0.8
		c0.2,0.2,0.6,0.3,1.1,0.3s0.9-0.1,1.3-0.3c0.4-0.2,0.6-0.5,0.8-0.9c0.1-0.3,0.2-0.7,0.2-1.2V1757.7z"/>
	<path d="M716.9,1752.7v-1.4h1.2v1.4H716.9z M716.9,1761.3v-7.3h1.2v7.3H716.9z"/>
	<path d="M720.7,1761.3v-7.3h1.1v1c0.5-0.8,1.3-1.2,2.3-1.2c0.4,0,0.8,0.1,1.2,0.2c0.4,0.2,0.6,0.4,0.8,0.6s0.3,0.6,0.4,0.9
		c0,0.2,0.1,0.6,0.1,1.2v4.5h-1.2v-4.4c0-0.5,0-0.9-0.1-1.1s-0.3-0.4-0.5-0.6c-0.2-0.1-0.5-0.2-0.9-0.2c-0.5,0-1,0.2-1.4,0.5
		s-0.6,1-0.6,1.9v4H720.7z"/>
</g>
<g>
	<path class="st11" d="M187.8,13.7V3.1h1.5v10.6C189.3,13.7,187.8,13.7,187.8,13.7z M194.1,13.7h-1.4V6.5h1.4v1
		c0.5-0.9,1.4-1.2,2.2-1.2c1.7,0,2.6,1.2,2.6,2.9v4.6h-1.4V9.4c0-1-0.4-1.8-1.7-1.8c-1.1,0-1.7,0.9-1.7,2V13.7L194.1,13.7z
		 M203.6,6.5h1.6v1.3h-1.6v3.7c0,0.7,0.3,1,1,1c0.2,0,0.4,0,0.6-0.1v1.2c-0.1,0-0.5,0.1-1,0.1c-1.2,0-2-0.8-2-2.1v-4h-1.4V6.5h0.4
		c0.8,0,1.1-0.5,1.1-1.1V4.2h1.3L203.6,6.5L203.6,6.5z M214.1,11.6c-0.4,1.3-1.6,2.3-3.2,2.3c-1.9,0-3.6-1.4-3.6-3.9
		c0-2.3,1.6-3.8,3.4-3.8c2.2,0,3.5,1.5,3.5,3.8v0.5h-5.4c0,1.3,1,2.2,2.2,2.2s1.8-0.6,2-1.5L214.1,11.6z M212.6,9.4
		c0-1-0.7-1.8-2-1.8c-1.2,0-1.9,0.9-2,1.8H212.6z M217.6,13.8c0.1,1,0.9,1.8,2,1.8c1.5,0,2.2-0.8,2.2-2.3v-1
		c-0.3,0.7-1.1,1.2-2.2,1.2c-1.9,0-3.3-1.5-3.3-3.5c0-1.9,1.3-3.5,3.3-3.5c1.1,0,1.9,0.4,2.2,1.1v-1h1.4v6.7c0,1.8-0.9,3.6-3.6,3.6
		c-1.8,0-3.1-1.1-3.3-2.7L217.6,13.8L217.6,13.8z M221.8,9.9c0-1.4-0.8-2.3-2.1-2.3c-1.2,0-2.1,0.9-2.1,2.3s0.8,2.3,2.1,2.3
		C220.8,12.2,221.8,11.3,221.8,9.9z M230.1,7.9h-0.6c-1.2,0-2,0.6-2,2.2v3.6h-1.4V6.5h1.4v1.3c0.5-1.1,1.4-1.4,2.2-1.4h0.5
		L230.1,7.9L230.1,7.9z M234.1,9.6l1.9-0.3c0.4-0.1,0.6-0.3,0.6-0.5c0-0.7-0.5-1.3-1.6-1.3c-1,0-1.5,0.6-1.6,1.5l-1.4-0.3
		c0.2-1.4,1.4-2.3,3-2.3c2.2,0,3,1.2,3,2.6v3.6c0,0.6,0.1,1,0.1,1.2h-1.4c0-0.2-0.1-0.5-0.1-1c-0.3,0.5-1,1.2-2.3,1.2
		c-1.5,0-2.4-1-2.4-2.2C231.8,10.5,232.8,9.8,234.1,9.6z M236.6,10.6v-0.3l-2.2,0.3c-0.6,0.1-1,0.4-1,1.1c0,0.5,0.4,1,1.2,1
		C235.6,12.7,236.6,12.2,236.6,10.6z M242.8,6.5h1.6v1.3h-1.6v3.7c0,0.7,0.3,1,1,1c0.2,0,0.4,0,0.6-0.1v1.2c-0.1,0-0.5,0.1-1,0.1
		c-1.2,0-2-0.8-2-2.1v-4h-1.4V6.5h0.4c0.8,0,1.1-0.5,1.1-1.1V4.2h1.3L242.8,6.5L242.8,6.5z M247.6,2.7c0.6,0,1,0.5,1,1
		c0,0.6-0.4,1-1,1s-1-0.5-1-1S247.1,2.7,247.6,2.7z M247.1,13.7V6.5h1.4v7.2H247.1z M252.9,13.7h-1.4V6.5h1.4v1
		c0.5-0.9,1.4-1.2,2.2-1.2c1.7,0,2.6,1.2,2.6,2.9v4.6h-1.4V9.4c0-1-0.4-1.8-1.7-1.8c-1.1,0-1.7,0.9-1.7,2L252.9,13.7L252.9,13.7z
		 M261.5,13.8c0.1,1,0.9,1.8,2,1.8c1.5,0,2.2-0.8,2.2-2.3v-1c-0.3,0.7-1.1,1.2-2.2,1.2c-1.9,0-3.3-1.5-3.3-3.5
		c0-1.9,1.3-3.5,3.3-3.5c1.1,0,1.9,0.4,2.2,1.1v-1h1.4v6.7c0,1.8-0.9,3.6-3.6,3.6c-1.8,0-3.1-1.1-3.3-2.7L261.5,13.8L261.5,13.8z
		 M265.8,9.9c0-1.4-0.8-2.3-2.1-2.3c-1.2,0-2.1,0.9-2.1,2.3s0.8,2.3,2.1,2.3C265,12.2,265.8,11.3,265.8,9.9z M276.3,9.6l1.9-0.3
		c0.4-0.1,0.6-0.3,0.6-0.5c0-0.7-0.5-1.3-1.6-1.3c-1,0-1.5,0.6-1.6,1.5l-1.4-0.3c0.2-1.4,1.4-2.3,3-2.3c2.2,0,3,1.2,3,2.6v3.6
		c0,0.6,0.1,1,0.1,1.2H279c0-0.2-0.1-0.5-0.1-1c-0.3,0.5-1,1.2-2.3,1.2c-1.5,0-2.4-1-2.4-2.2C274.2,10.5,275.2,9.8,276.3,9.6
		L276.3,9.6z M278.8,10.6v-0.3l-2.2,0.3c-0.6,0.1-1.1,0.4-1.1,1.1c0,0.5,0.4,1,1.2,1C278,12.7,278.8,12.2,278.8,10.6z M289.7,7.8
		v5.9h-1.5V7.8h-1.3V6.5h1.3V5.3c0-1.6,1.1-2.5,2.4-2.5c0.5,0,0.8,0.1,0.8,0.2v1.3c-0.1,0-0.3-0.1-0.6-0.1c-0.5,0-1.1,0.2-1.1,1.2
		v1.1h1.7v1.3H289.7L289.7,7.8z M299.7,11.6c-0.4,1.3-1.6,2.3-3.2,2.3c-1.9,0-3.6-1.4-3.6-3.9c0-2.3,1.6-3.8,3.4-3.8
		c2.2,0,3.5,1.5,3.5,3.8v0.5h-5.4c0,1.3,1,2.2,2.2,2.2s1.8-0.6,2-1.5L299.7,11.6z M298.2,9.4c0-1-0.7-1.8-2-1.8
		c-1.2,0-1.9,0.9-2,1.8H298.2z M304,9.6l1.9-0.3c0.4-0.1,0.6-0.3,0.6-0.5c0-0.7-0.5-1.3-1.6-1.3c-1,0-1.5,0.6-1.6,1.5l-1.4-0.3
		c0.2-1.4,1.4-2.3,3-2.3c2.2,0,3,1.2,3,2.6v3.6c0,0.6,0.1,1,0.1,1.2h-1.4c0-0.2-0.1-0.5-0.1-1c-0.3,0.5-1,1.2-2.3,1.2
		c-1.5,0-2.4-1-2.4-2.2C301.8,10.5,302.8,9.8,304,9.6L304,9.6z M306.5,10.6v-0.3l-2.2,0.3c-0.6,0.1-1.1,0.4-1.1,1.1
		c0,0.5,0.4,1,1.2,1C305.5,12.7,306.5,12.2,306.5,10.6z M312.8,6.5h1.6v1.3h-1.6v3.7c0,0.7,0.3,1,1,1c0.2,0,0.4,0,0.6-0.1v1.2
		c-0.1,0-0.5,0.1-1,0.1c-1.2,0-2-0.8-2-2.1v-4H310V6.5h0.4c0.8,0,1.1-0.5,1.1-1.1V4.2h1.3V6.5z M319.5,13.9c-1.7,0-2.7-1.3-2.7-2.9
		V6.5h1.4v4.3c0,1,0.4,1.9,1.6,1.9c1.1,0,1.7-0.8,1.7-1.8V6.5h1.4v5.9c0,0.6,0,1.1,0.1,1.3h-1.4c0-0.2-0.1-0.6-0.1-0.9
		C321.2,13.6,320.3,13.9,319.5,13.9z M330.2,7.9h-0.6c-1.2,0-2,0.6-2,2.2v3.6h-1.4V6.5h1.4v1.3c0.5-1.1,1.4-1.4,2.2-1.4h0.5
		L330.2,7.9L330.2,7.9z M338.5,11.6c-0.4,1.3-1.6,2.3-3.2,2.3c-1.9,0-3.6-1.4-3.6-3.9c0-2.3,1.6-3.8,3.4-3.8c2.2,0,3.5,1.5,3.5,3.8
		v0.5h-5.4c0,1.3,1,2.2,2.2,2.2s1.8-0.6,2-1.5L338.5,11.6z M337.2,9.4c0-1-0.7-1.8-2-1.8c-1.2,0-1.9,0.9-2,1.8H337.2z M346.3,2.7
		c0.6,0,1,0.5,1,1c0,0.6-0.4,1-1,1c-0.6,0-1-0.5-1-1S345.8,2.7,346.3,2.7z M345.7,13.7V6.5h1.4v7.2H345.7z M351.7,13.7h-1.4V6.5h1.4
		v1c0.5-0.9,1.4-1.2,2.2-1.2c1.7,0,2.6,1.2,2.6,2.9v4.6h-1.4V9.4c0-1-0.4-1.8-1.7-1.8c-1.1,0-1.7,0.9-1.7,2
		C351.7,9.6,351.7,13.7,351.7,13.7z M361.3,6.5h1.6v1.3h-1.6v3.7c0,0.7,0.3,1,1,1c0.2,0,0.4,0,0.6-0.1v1.2c-0.1,0-0.5,0.1-1,0.1
		c-1.2,0-2-0.8-2-2.1v-4h-1.4V6.5h0.4c0.8,0,1.1-0.5,1.1-1.1V4.2h1.3V6.5z M372.2,10.1c0,2.2-1.5,3.8-3.7,3.8s-3.7-1.6-3.7-3.8
		s1.5-3.8,3.7-3.8S372.2,7.9,372.2,10.1z M370.8,10.1c0-1.7-1.1-2.6-2.2-2.6c-1.1,0-2.2,0.9-2.2,2.6s1.1,2.6,2.2,2.6
		C369.6,12.7,370.8,11.8,370.8,10.1z M427.2,6.5l1.9,5.4l1.6-5.4h1.5l-2.3,7.2h-1.5l-1.9-5.5l-1.9,5.5H423l-2.4-7.2h1.5l1.6,5.4
		l1.9-5.4L427.2,6.5L427.2,6.5z M435,2.7c0.6,0,1,0.5,1,1c0,0.6-0.4,1-1,1c-0.6,0-1-0.5-1-1S434.3,2.7,435,2.7z M434.2,13.7V6.5h1.4
		v7.2H434.2z M440.7,6.5h1.6v1.3h-1.6v3.7c0,0.7,0.3,1,1,1c0.2,0,0.4,0,0.6-0.1v1.2c-0.1,0-0.5,0.1-1,0.1c-1.2,0-2-0.8-2-2.1v-4
		h-1.4V6.5h0.4c0.8,0,1.1-0.5,1.1-1.1V4.2h1.3V6.5z M446.2,13.7h-1.4V2.8h1.4v4.5c0.5-0.8,1.4-1,2.2-1c1.7,0,2.6,1.2,2.6,2.9v4.6
		h-1.4V9.4c0-1-0.4-1.8-1.7-1.8c-1.1,0-1.6,0.8-1.7,1.9V13.7z M460.2,9.6l1.9-0.3c0.4-0.1,0.6-0.3,0.6-0.5c0-0.7-0.5-1.3-1.6-1.3
		c-1,0-1.5,0.6-1.6,1.5l-1.4-0.3c0.2-1.4,1.4-2.3,3-2.3c2.2,0,3,1.2,3,2.6v3.6c0,0.6,0.1,1,0.1,1.2h-1.4c0-0.2-0.1-0.5-0.1-1
		c-0.3,0.5-1,1.2-2.3,1.2c-1.5,0-2.4-1-2.4-2.2C458.2,10.5,459,9.8,460.2,9.6L460.2,9.6z M462.8,10.6v-0.3l-2.2,0.3
		c-0.6,0.1-1.1,0.4-1.1,1.1c0,0.5,0.4,1,1.2,1C461.8,12.7,462.8,12.2,462.8,10.6z M468.5,13.7h-1.4V6.5h1.4v1
		c0.5-0.9,1.4-1.2,2.2-1.2c1.7,0,2.6,1.2,2.6,2.9v4.6H472V9.4c0-1-0.4-1.8-1.7-1.8c-1.1,0-1.7,0.9-1.7,2V13.7z M481.3,12.6
		c-0.3,0.7-1.1,1.3-2.2,1.3c-2.1,0-3.4-1.7-3.4-3.8c0-2,1.4-3.8,3.4-3.8c1.3,0,2,0.6,2.2,1.2V2.8h1.4v9.5c0,0.7,0.1,1.2,0.1,1.3
		h-1.4C481.5,13.4,481.3,13.1,481.3,12.6z M479.2,12.7c1.3,0,2.1-1.1,2.1-2.6s-0.8-2.5-2.1-2.5c-1.3,0-2.1,1-2.1,2.5
		S478,12.7,479.2,12.7z M496,6.5l1.9,5.4l1.6-5.4h1.5l-2.3,7.2h-1.5l-1.9-5.5l-1.9,5.5h-1.5l-2.4-7.2h1.5l1.6,5.4l1.9-5.4L496,6.5
		L496,6.5z M503.8,2.7c0.6,0,1,0.5,1,1c0,0.6-0.4,1-1,1c-0.6,0-1-0.5-1-1S503.2,2.7,503.8,2.7z M503,13.7V6.5h1.4v7.2H503z
		 M509.5,6.5h1.6v1.3h-1.6v3.7c0,0.7,0.3,1,1,1c0.2,0,0.4,0,0.6-0.1v1.2c-0.1,0-0.5,0.1-1,0.1c-1.2,0-2-0.8-2-2.1v-4h-1.4V6.5h0.4
		c0.8,0,1.1-0.5,1.1-1.1V4.2h1.3L509.5,6.5L509.5,6.5z M515,13.7h-1.4V2.8h1.4v4.5c0.5-0.8,1.4-1,2.2-1c1.7,0,2.6,1.2,2.6,2.9v4.6
		h-1.4V9.4c0-1-0.4-1.8-1.7-1.8c-1.1,0-1.6,0.8-1.7,1.9V13.7L515,13.7z M529.7,10.1c0,2.2-1.5,3.8-3.7,3.8s-3.7-1.6-3.7-3.8
		s1.5-3.8,3.7-3.8S529.7,7.9,529.7,10.1z M528.2,10.1c0-1.7-1.1-2.6-2.2-2.6s-2.2,0.9-2.2,2.6s1,2.6,2.2,2.6S528.2,11.8,528.2,10.1z
		 M534.8,13.9c-1.7,0-2.7-1.3-2.7-2.9V6.5h1.4v4.3c0,1,0.4,1.9,1.6,1.9c1.1,0,1.7-0.8,1.7-1.8V6.5h1.4v5.9c0,0.6,0,1.1,0.1,1.3h-1.4
		c0-0.2-0.1-0.6-0.1-0.9C536.5,13.6,535.5,13.9,534.8,13.9z M543.2,6.5h1.6v1.3h-1.6v3.7c0,0.7,0.3,1,1,1c0.2,0,0.4,0,0.6-0.1v1.2
		c-0.1,0-0.5,0.1-1,0.1c-1.2,0-2-0.8-2-2.1v-4h-1.4V6.5h0.4c0.8,0,1.1-0.5,1.1-1.1V4.2h1.3V6.5L543.2,6.5z M553.7,9.6l1.9-0.3
		c0.4-0.1,0.6-0.3,0.6-0.5c0-0.7-0.5-1.3-1.6-1.3c-1,0-1.5,0.6-1.6,1.5l-1.4-0.3c0.2-1.4,1.4-2.3,3-2.3c2.2,0,3,1.2,3,2.6v3.6
		c0,0.6,0.1,1,0.1,1.2h-1.4c0-0.2-0.1-0.5-0.1-1c-0.3,0.5-1,1.2-2.3,1.2c-1.5,0-2.4-1-2.4-2.2C551.5,10.5,552.5,9.8,553.7,9.6z
		 M556.2,10.6v-0.3l-2.2,0.3c-0.6,0.1-1,0.4-1,1.1c0,0.5,0.4,1,1.2,1C555.2,12.7,556.2,12.2,556.2,10.6z M569,7.9h-0.6
		c-1.2,0-2,0.6-2,2.2v3.6H565V6.5h1.4v1.3c0.5-1.1,1.4-1.4,2.2-1.4h0.5v1.5H569z M577.5,11.6c-0.4,1.3-1.6,2.3-3.2,2.3
		c-1.9,0-3.6-1.4-3.6-3.9c0-2.3,1.6-3.8,3.4-3.8c2.2,0,3.5,1.5,3.5,3.8v0.5h-5.4c0,1.3,1,2.2,2.2,2.2s1.8-0.6,2-1.5L577.5,11.6z
		 M576,9.4c0-1-0.7-1.8-2-1.8c-1.2,0-1.9,0.9-2,1.8H576z M580,13.7V2.8h1.4v4.7c0.3-0.6,1.2-1.2,2.4-1.2c2.2,0,3.3,1.7,3.3,3.8
		s-1.2,3.8-3.4,3.8c-1.1,0-1.9-0.5-2.3-1.2v1C581.5,13.7,580,13.7,580,13.7z M583.5,7.5c-1.2,0-2.1,1-2.1,2.5c0,1.6,0.9,2.6,2.1,2.6
		c1.3,0,2.1-1,2.1-2.6C585.8,8.5,585,7.5,583.5,7.5z M591.5,9.6l1.9-0.3c0.4-0.1,0.6-0.3,0.6-0.5c0-0.7-0.5-1.3-1.6-1.3
		c-1,0-1.5,0.6-1.6,1.5l-1.3-0.4c0.2-1.4,1.4-2.3,3-2.3c2.2,0,3,1.2,3,2.6v3.6c0,0.6,0.1,1,0.1,1.2h-1.4c0-0.2-0.1-0.5-0.1-1
		c-0.3,0.5-1,1.2-2.3,1.2c-1.5,0-2.4-1-2.4-2.2C589.2,10.5,590.2,9.8,591.5,9.6z M594,10.6v-0.3l-2.2,0.3c-0.6,0.1-1,0.4-1,1.1
		c0,0.5,0.4,1,1.2,1C593,12.7,594,12.2,594,10.6z M599,11.4c0.1,0.8,0.7,1.3,1.7,1.3c0.8,0,1.2-0.5,1.2-1c0-0.4-0.3-0.8-0.9-0.9
		l-1.2-0.3c-1.1-0.2-1.8-1-1.8-2c0-1.2,1.2-2.3,2.6-2.3c2,0,2.6,1.3,2.7,1.9L602,8.6c-0.1-0.4-0.4-1.2-1.5-1.2c-0.7,0-1.2,0.5-1.2,1
		c0,0.4,0.3,0.8,0.8,0.9l1.2,0.3c1.3,0.3,2,1.1,2,2.1s-0.9,2.2-2.6,2.2c-2,0-2.8-1.3-2.9-2.1L599,11.4L599,11.4z M612,11.6
		c-0.4,1.3-1.6,2.3-3.2,2.3c-1.9,0-3.6-1.4-3.6-3.9c0-2.3,1.6-3.8,3.4-3.8c2.2,0,3.5,1.5,3.5,3.8v0.5h-5.4c0,1.3,1,2.2,2.2,2.2
		s1.8-0.6,2-1.5L612,11.6z M610.7,9.4c0-1-0.7-1.8-2-1.8c-1.2,0-1.9,0.9-2,1.8H610.7z"/>
	<g>
		<g>
			<path class="st11" d="M379.2,13.8V6.6h1.3v1c0.5-0.8,1.4-1.2,2.2-1.2c0.9,0,1.8,0.4,2.2,1.4c0.6-1,1.5-1.4,2.4-1.4
				c1.3,0,2.5,0.9,2.5,2.7v4.7h-1.4V9.2c0-0.9-0.5-1.6-1.5-1.6s-1.7,0.8-1.7,1.8v4.4h-1.4V9.2c0-0.9-0.4-1.6-1.5-1.6
				c-1,0-1.7,0.7-1.7,1.8v4.3h-1.4V13.8z M394.6,9.6l1.9-0.3c0.4-0.1,0.6-0.3,0.6-0.5c0-0.7-0.5-1.3-1.6-1.3c-1,0-1.5,0.6-1.6,1.5
				l-1.4-0.3c0.2-1.4,1.4-2.3,3-2.3c2.2,0,3,1.2,3,2.6v3.6c0,0.6,0.1,1,0.1,1.2h-1.4c0-0.2-0.1-0.5-0.1-1c-0.3,0.5-1,1.2-2.3,1.2
				c-1.5,0-2.4-1-2.4-2.2C392.4,10.5,393.3,9.8,394.6,9.6L394.6,9.6z M397.1,10.7v-0.3l-2.2,0.3c-0.6,0.1-1,0.4-1,1.1
				c0,0.5,0.4,1,1.2,1C396.1,12.8,397.1,12.3,397.1,10.7z M402.3,2.8c0.6,0,1,0.4,1,1s-0.4,1-1,1c-0.6,0-1-0.5-1-1
				S401.8,2.8,402.3,2.8z M401.6,13.8V6.6h1.4v7.2H401.6z M407.5,13.8h-1.4V6.6h1.4v1c0.5-0.9,1.4-1.2,2.2-1.2
				c1.7,0,2.6,1.2,2.6,2.9v4.6H411V9.4c0-1-0.4-1.8-1.7-1.8c-1.1,0-1.7,0.9-1.7,2V13.8z"/>
		</g>
	</g>
</g>
</svg>
